<svg xmlns="http://www.w3.org/2000/svg" viewBox="0 0 96 96" role="img" aria-labelledby="title desc">
  <title id="title">ProspectSignal mark</title>
  <desc id="desc">A grid of companies, filtered down to one highlighted prospect inside a target ring.</desc>
  <rect width="96" height="96" rx="24" fill="#173C3A"/>
  <g fill="#83D2B4" opacity=".38">
    <circle cx="22" cy="22" r="3.2"/><circle cx="38" cy="22" r="3.2"/><circle cx="54" cy="22" r="3.2"/><circle cx="74" cy="22" r="3.2"/>
    <circle cx="22" cy="38" r="3.2"/><circle cx="38" cy="38" r="3.2"/><circle cx="74" cy="38" r="3.2"/>
    <circle cx="22" cy="58" r="3.2"/><circle cx="74" cy="58" r="3.2"/>
    <circle cx="22" cy="74" r="3.2"/><circle cx="38" cy="74" r="3.2"/><circle cx="54" cy="74" r="3.2"/><circle cx="74" cy="74" r="3.2"/>
  </g>
  <circle cx="50" cy="50" r="17" fill="none" stroke="#F8F5ED" stroke-width="4.5"/>
  <path d="M50 26v9M50 65v9M26 50h9M65 50h9" stroke="#F2C66D" stroke-width="3.5" stroke-linecap="round"/>
  <circle cx="50" cy="50" r="6" fill="#D95B40"/>
</svg>
